<?xml version="1.0" encoding="UTF-8" standalone="no"?>
<!-- Created with Inkscape (http://www.inkscape.org/) -->

<svg
   xmlns:dc="http://purl.org/dc/elements/1.1/"
   xmlns:cc="http://creativecommons.org/ns#"
   xmlns:rdf="http://www.w3.org/1999/02/22-rdf-syntax-ns#"
   xmlns:svg="http://www.w3.org/2000/svg"
   xmlns="http://www.w3.org/2000/svg"
   xmlns:sodipodi="http://sodipodi.sourceforge.net/DTD/sodipodi-0.dtd"
   xmlns:inkscape="http://www.inkscape.org/namespaces/inkscape"
   version="1.1"
   id="svg2"
   width="182.58954"
   height="165.57028"
   viewBox="0 0 182.58954 165.57028"
   sodipodi:docname="icon.png.svg"
   inkscape:version="0.92.5 (2060ec1f9f, 2020-04-08)"
   inkscape:export-filename="/home/etienne/Documents/code/unleash-space-search/static/icon.png"
   inkscape:export-xdpi="60"
   inkscape:export-ydpi="60">
  <metadata
     id="metadata8">
    <rdf:RDF>
      <cc:Work
         rdf:about="">
        <dc:format>image/svg+xml</dc:format>
        <dc:type
           rdf:resource="http://purl.org/dc/dcmitype/StillImage" />
        <dc:title></dc:title>
      </cc:Work>
    </rdf:RDF>
  </metadata>
  <defs
     id="defs6" />
  <sodipodi:namedview
     pagecolor="#ffffff"
     bordercolor="#666666"
     borderopacity="1"
     objecttolerance="10"
     gridtolerance="10"
     guidetolerance="10"
     inkscape:pageopacity="0"
     inkscape:pageshadow="2"
     inkscape:window-width="1920"
     inkscape:window-height="1057"
     id="namedview4"
     showgrid="false"
     fit-margin-top="0"
     fit-margin-left="0"
     fit-margin-right="0"
     fit-margin-bottom="0"
     inkscape:zoom="1.0488889"
     inkscape:cx="93.964045"
     inkscape:cy="96.57919"
     inkscape:window-x="0"
     inkscape:window-y="0"
     inkscape:window-maximized="1"
     inkscape:current-layer="svg2" />
  <path
     style="fill:#ef5222;fill-opacity:1"
     d="M 65.65048,164.55965 C 36.550382,157.79941 13.927202,137.8388 4.5623023,110.66106 -11.151948,65.056998 15.107012,16.354097 62.15048,3.851397 c 11.15098,-2.96358998 28.826965,-2.96667998 40.00001,-0.007 8.70207,2.30514 21.01337,7.74359 23.7701,10.50032 2.69553,2.69553 2.23516,8.04444 -0.90496,10.51446 -1.44917,1.13993 -3.05192,2.07259 -3.56167,2.07259 -0.50974,0 -4.16155,-1.57243 -8.11514,-3.49429 -16.797305,-8.16526 -35.27845,-9.62842 -52.26675,-4.13797 -19.481948,6.29637 -36.133958,22.71536 -42.879058,42.279041 -2.95299,8.56495 -4.55768,26.86012 -2.90395,33.10808 l 0.86152,3.25486 21.99995,-19.06664 C 50.250502,68.388188 61.15076,58.823498 62.37332,57.619988 l 2.22284,-2.188218 -3.04738,-0.11025 c -4.06353,-0.14702 -6.2983,-2.59164 -6.2983,-6.88975 0,-5.785393 1.60442,-6.537463 18.8612,-8.841173 16.813375,-2.24451 17.814015,-2.1177 20.491735,2.59685 1.12892,1.98763 1.20454,3.10328 0.33912,5.002683 C 94.329935,48.53464 78.60111,62.818308 59.9896,78.931628 16.907522,116.23086 21.073662,112.12499 22.591272,115.78881 c 0.68502,1.65379 2.27779,4.40609 3.53949,6.11623 l 2.294,3.10934 61.998793,-53.791312 C 149.85117,19.662577 152.28256,17.418937 149.05148,17.122297 c -6.04917,-0.55535 -8.58877,-7.83772 -4.15099,-11.90309 1.72903,-1.58394 5.04154,-2.43469 14.30627,-3.67431 15.79489,-2.11335998 19.71617,-2.07455998 21.78874,0.21561 2.17577,2.40419 2.11251,7.71969 -0.11807,9.92126 -0.97518,0.9625 -33.41276,29.19937 -72.0835,62.748611 l -70.310438,60.998612 3.3335,2.79695 c 3.44525,2.89072 16.242378,9.70583 18.225208,9.70583 0.61765,0 3.83675,-2.3625 7.15356,-5.25 3.31681,-2.8875 7.97341,-6.90875 10.348,-8.93611 l 4.317445,-3.68612 -3.108375,0.0884 c -4.11801,0.11707 -7.10235,-2.69687 -7.10235,-6.69684 0,-5.43643 2.9184,-7.00573 16.500005,-8.87246 19.993325,-2.74799 23.500005,-2.00326 23.500005,4.99074 0,3.86486 0.05,3.81048 -17.411595,18.94124 -16.823945,14.57824 -16.849525,14.80111 -1.3875,12.08862 11.066895,-1.94146 18.393355,-4.83932 27.305865,-10.80037 23.44903,-15.68367 34.5343,-45.551602 27.39066,-73.800852 -2.08849,-8.25887 -2.0895,-8.3321 -0.15113,-10.940388 2.4299,-3.26967 7.06463,-3.92552 10.07937,-1.42631 2.58401,2.14214 5.63445,13.279868 6.65549,24.300448 1.3904,15.0072 -3.14774,34.089442 -11.41771,48.009862 -10.42044,17.54019 -29.58564,32.07225 -49.56345,37.5816 -7.849475,2.16467 -30.00723,2.77706 -37.50001,1.03642 z"
     id="path819"
     inkscape:connector-curvature="0" />
</svg>
