<?xml version="1.0" encoding="UTF-8" standalone="no"?>
<svg
   xmlns:dc="http://purl.org/dc/elements/1.1/"
   xmlns:cc="http://creativecommons.org/ns#"
   xmlns:rdf="http://www.w3.org/1999/02/22-rdf-syntax-ns#"
   xmlns:svg="http://www.w3.org/2000/svg"
   xmlns="http://www.w3.org/2000/svg"
   xmlns:sodipodi="http://sodipodi.sourceforge.net/DTD/sodipodi-0.dtd"
   xmlns:inkscape="http://www.inkscape.org/namespaces/inkscape"
   version="1.1"
   id="svg2"
   width="202.23453"
   height="200"
   viewBox="0 0 202.23453 200"
   sodipodi:docname="communityIcon_52ntzifxgpn31.svg"
   inkscape:version="1.0.1 (1.0.1+r73)"
   inkscape:export-filename="/home/etienne/Downloads/unleash.png"
   inkscape:export-xdpi="96"
   inkscape:export-ydpi="96">
  <metadata
     id="metadata8">
    <rdf:RDF>
      <cc:Work
         rdf:about="">
        <dc:format>image/svg+xml</dc:format>
        <dc:type
           rdf:resource="http://purl.org/dc/dcmitype/StillImage" />
        <dc:title></dc:title>
      </cc:Work>
    </rdf:RDF>
  </metadata>
  <defs
     id="defs6" />
  <sodipodi:namedview
     pagecolor="#ffffff"
     bordercolor="#666666"
     borderopacity="1"
     objecttolerance="10"
     gridtolerance="10"
     guidetolerance="10"
     inkscape:pageopacity="0"
     inkscape:pageshadow="2"
     inkscape:window-width="1920"
     inkscape:window-height="1019"
     id="namedview4"
     showgrid="false"
     inkscape:zoom="1.8509804"
     inkscape:cx="35.494004"
     inkscape:cy="102.27827"
     inkscape:window-x="0"
     inkscape:window-y="0"
     inkscape:window-maximized="1"
     inkscape:current-layer="svg2"
     inkscape:document-rotation="0"
     fit-margin-top="0"
     fit-margin-left="0"
     fit-margin-right="0"
     fit-margin-bottom="0" />
  <path
     style="fill:#f0532f;stroke-width:0.831738;fill-opacity:1"
     d="m 74.683623,187.89817 c -21.4449,-4.51102 -37.466432,-13.1425 -51.044287,-27.49972 -8.222075,-8.69402 -9.836785,-10.92997 -14.3398233,-19.85688 -3.634199,-7.20451 -5.965571,-13.57608 -8.42221401,-23.01769 -1.290435,-4.95953 -1.119088,-26.347532 0.26298601,-32.826492 7.627572,-35.756947 36.7070103,-63.169517 73.9583383,-69.718957 10.162364,-1.78673 29.641197,-1.12744 39.009457,1.32033 10.26319,2.6816 23.85855,8.69118 28.12552,12.43237 4.15474,3.64281 4.10958,9.30424 -0.10077,12.63008 -3.23405,2.55463 -7.77698,2.15902 -13.78009,-1.20004 -9.49305,-5.31186 -25.88959,-9.61126 -36.654343,-9.61126 -4.11707,0 -15.585634,1.73416 -21.164714,3.20031 -12.49234,3.28291 -25.248865,11.03577 -34.025278,20.67908 -10.181351,11.18703 -15.533668,22.401157 -18.301089,38.344277 -1.385712,7.983092 -0.396727,21.096292 1.591062,21.096292 0.438845,0 16.188587,-12.93589 31.330565,-25.733042 1.42448,-1.2039 6.18901,-5.16194 10.58784,-8.79568 l 7.99789,-6.60678 -3.08617,-1.065447 c -6.01998,-2.07831 -8.07501,-8.70986 -4.05045,-13.07076 2.04585,-2.21682 3.06611,-2.58584 9.61561,-3.47791 12.802784,-1.7438 16.885754,-2.21622 22.825754,-2.64103 6.435253,-0.46022 6.712173,-0.40344 8.939193,1.83297 4.98071,5.00173 3.87001,8.82162 -4.621503,15.8942 -8.42949,7.020927 -24.229374,20.094097 -29.625214,24.512547 -2.50621,2.05225 -5.49416,4.535572 -6.63991,5.518492 -3.86921,3.31936 -27.889676,23.18882 -32.60234,26.96829 -2.572238,2.06289 -4.694468,4.4251 -4.716066,5.24936 -0.04448,1.69746 5.374654,10.58696 6.453924,10.58696 0.38714,0 4.220102,-2.92756 8.517691,-6.50569 4.297589,-3.57813 12.482481,-10.37184 18.188651,-15.09713 5.70617,-4.7253 11.31228,-9.39292 12.45803,-10.3725 1.14574,-0.97958 4.1337,-3.46015 6.63991,-5.5124 2.5062,-2.05224 8.665174,-7.13534 13.686614,-11.295782 25.970143,-21.51722 34.908063,-28.903557 42.330703,-34.982297 4.47815,-3.66736 8.55079,-7.04801 9.05033,-7.51256 2.07666,-1.9312 19.11765,-15.9646 21.39585,-17.61964 l 2.47009,-1.79446 -2.38888,-0.5269 c -3.05034,-0.67279 -6.69751,-4.05614 -7.39929,-6.86405 -0.34272,-1.37129 -0.0624,-2.98374 0.75649,-4.35106 2.61391,-4.36461 4.65203,-5.13694 18.04953,-6.83972 16.64388,-2.11539 20.82192,-2.26075 23.50739,-0.81787 2.04322,1.09779 3.15036,2.738454 2.64056,7.862245 l -0.24046,4.24108 -0.19884,0.174095 -10.43494,8.64408 c -5.73922,4.75424 -11.10649,9.22713 -11.92728,9.93975 -0.82078,0.71261 -7.40578,6.17159 -14.63332,12.13104 -7.22754,5.95946 -18.57416,15.35197 -25.2147,20.872247 -6.64055,5.52027 -17.67615,14.66505 -24.52356,20.32172 -6.8474,5.656682 -14.13055,11.694592 -16.184773,13.417572 -2.05422,1.72299 -8.59038,7.15658 -14.524804,12.07465 -5.93442,4.91808 -11.95942,9.92902 -13.3889,11.13543 -1.42948,1.20641 -7.85556,6.5068 -14.28017,11.77863 -6.42461,5.27182 -11.69455,9.96021 -11.710984,10.41863 -0.0403,1.12438 8.337784,6.43149 14.480404,9.17262 2.73896,1.22226 5.66281,2.58676 6.49745,3.03224 1.38767,0.74064 2.79715,0.20015 4.70739,-1.80513 0.22825,-0.2396 3.9632,-3.39201 8.29989,-7.00537 4.33668,-3.61335 7.994534,-6.84195 8.128534,-7.17468 0.13401,-0.33272 -0.73819,-0.85241 -1.93822,-1.15486 -3.536134,-0.89126 -6.190314,-4.40197 -6.190314,-8.18797 0,-4.6617 3.35577,-7.7021 9.296304,-8.42265 2.41917,-0.29343 7.19971,-0.92265 10.62342,-1.39826 3.423703,-0.47561 9.586363,-1.08274 13.694813,-1.34917 7.16472,-0.46463 7.56176,-0.39832 9.7188,1.62311 4.87434,4.56792 3.80846,9.33013 -3.36049,15.01418 -2.58408,2.04885 -5.51182,4.44265 -6.50608,5.31955 -0.99425,0.8769 -6.33445,5.32449 -11.86711,9.88354 l -10.059393,8.28917 4.81222,0.27336 c 4.50292,0.25579 9.354703,-0.45089 17.262053,-2.51427 18.95663,-4.94661 37.99047,-20.57559 45.99433,-37.76664 3.09466,-6.64685 3.5794,-8.04177 5.8264,-16.76651 1.91901,-7.45127 0.79514,-27.834402 -1.84514,-33.464232 -0.48707,-1.03857 -0.91273,-3.78982 -0.94592,-6.11391 -0.0519,-3.635317 0.26496,-4.506767 2.2684,-6.238237 3.02764,-2.61664 8.5362,-2.75991 11.64665,-0.3029 4.07485,3.218787 7.1893,17.505417 7.1893,32.978709 0,23.49996 -8.21284,42.84265 -25.65798,60.42911 -13.43304,13.54185 -28.59525,21.3695 -49.72679,25.67199 -5.29644,1.07838 -27.254887,1.02046 -32.513737,-0.0858 z"
     id="path10"
     sodipodi:nodetypes="ssssssssssssssssccssssssssssssssscssscsscsssccsssssssssssssssssssssssscsssssssssssss" />
  <path
     style="fill:#000000;stroke-width:0.831738"
     id="path8"
     d="" />
</svg>
